<svg width="33" height="40" viewBox="0 0 33 40" fill="none" xmlns="http://www.w3.org/2000/svg">
<path d="M32.4583 34.6678L30.1565 8.72697C30.1151 8.21362 29.6845 7.82447 29.1629 7.82447H24.3109C24.3026 3.51066 20.792 0 16.4782 0C12.1644 0 8.6537 3.51066 8.64542 7.82447H3.79343C3.28008 7.82447 2.84953 8.21362 2.79985 8.72697L0.498047 34.6678C0.498047 34.7009 0.498047 34.7257 0.498047 34.7588C0.498047 37.6485 3.15588 40 6.41814 40H26.5382C29.8005 40 32.4583 37.6485 32.4583 34.7588C32.4583 34.7257 32.4583 34.7009 32.4583 34.6678ZM16.4782 1.98717C19.699 1.98717 22.3155 4.6036 22.3237 7.82447H10.6326C10.6409 4.6036 13.2573 1.98717 16.4782 1.98717ZM26.5382 38.0046H6.41814C4.26538 38.0046 2.51005 36.5721 2.48521 34.792L4.70421 9.81163H8.64542V13.2975C8.64542 13.8439 9.09254 14.291 9.63901 14.291C10.1855 14.291 10.6326 13.8439 10.6326 13.2975V9.81163H22.3237V13.2975C22.3237 13.8439 22.7709 14.291 23.3173 14.291C23.8638 14.291 24.3109 13.8439 24.3109 13.2975V9.81163H28.2521L30.4711 34.8002C30.4463 36.5721 28.691 38.0046 26.5382 38.0046Z" fill="#222222"/>
</svg>
