<svg width="46" height="40" viewBox="0 0 46 40" fill="none" xmlns="http://www.w3.org/2000/svg">
<path d="M41.8231 3.71353C39.4406 1.33108 36.2865 0.0289367 32.9202 0.0289367C29.5539 0.0289367 26.3902 1.34073 24.0078 3.72317L22.7635 4.96745L21.4999 3.70388C19.1175 1.32144 15.9441 0 12.5778 0C9.22118 0 6.05744 1.31179 3.68464 3.68459C1.3022 6.06704 -0.00959271 9.23077 5.28162e-05 12.5971C5.28162e-05 15.9633 1.32149 19.1174 3.70394 21.4999L21.8182 39.6142C22.069 39.865 22.4066 40 22.7346 40C23.0625 40 23.4001 39.8746 23.6509 39.6238L41.8038 21.5385C44.1862 19.156 45.498 15.9923 45.498 12.626C45.5076 9.25971 44.2055 6.09597 41.8231 3.71353ZM39.9711 19.6962L22.7346 36.8652L5.53659 19.6672C3.64606 17.7767 2.60435 15.2689 2.60435 12.5971C2.60435 9.92525 3.63642 7.41741 5.52694 5.53653C7.40782 3.65566 9.91565 2.61394 12.5778 2.61394C15.2496 2.61394 17.7671 3.65565 19.6576 5.54618L21.8375 7.72607C22.3487 8.23728 23.1686 8.23728 23.6798 7.72607L25.8404 5.56547C27.7309 3.67495 30.2484 2.63323 32.9106 2.63323C35.5728 2.63323 38.0806 3.67495 39.9711 5.55582C41.8616 7.44635 42.8937 9.95418 42.8937 12.626C42.9034 15.2978 41.8616 17.8056 39.9711 19.6962Z" fill="#222222"/>
</svg>
