<svg width="82" height="64" viewBox="0 0 82 64" fill="none" xmlns="http://www.w3.org/2000/svg">
<path d="M5.58437 1.59664C3.48709 3.58354 1.09545 7.88848 0.359563 10.9424C-0.633887 15.2842 0.469947 20.6929 3.19274 24.7403L4.48054 26.6536L6.24667 44.9037C7.20333 54.9486 8.0864 63.3377 8.23357 63.5585C8.60152 64.1472 12.9433 64.1472 13.532 63.5585C13.8631 63.2273 13.9735 58.628 13.9735 45.1612V27.2056L15.0038 27.4263C19.4927 28.4198 22.6202 30.3331 26.2996 34.2701C29.464 37.692 31.6348 41.261 34.7624 48.1784C39.5456 58.812 43.2251 62.4546 49.9585 63.3377C52.7181 63.7056 67.2519 63.4849 73.2861 63.0066L76.0825 62.7858L78.8789 58.2233C83.2942 50.9748 82.9631 49.8709 74.8683 45.7868C72.0351 44.3518 67.8774 41.9969 65.6329 40.5251C63.3884 39.0902 61.2544 37.8759 60.9232 37.8759C60.5921 37.8759 60.0034 38.4279 59.6722 39.0534C58.9731 40.4148 55.4776 44.131 54.9625 44.131C54.7785 44.0942 52.6445 41.5922 50.216 38.5015C35.1671 19.4419 20.5965 4.87134 13.0169 1.26548C11.8394 0.676773 10.0733 0.161651 9.11664 0.0512682C7.49768 -0.0959096 7.31371 -0.0223197 5.58437 1.59664ZM17.285 6.96862C23.5769 11.6047 36.0134 24.8139 47.2725 38.7958C51.467 44.0206 51.9454 44.6829 51.2095 44.7933C48.4131 45.198 38.1107 36.0362 26.4468 22.7902C20.6701 16.204 9.92612 3.25238 9.92612 2.81085C9.92612 2.29573 14.1943 4.68737 17.285 6.96862ZM13.0536 10.832C20.7069 20.141 26.6676 26.948 33.9161 34.5645C43.2251 44.3886 47.2725 47.2953 51.6878 47.2217C55.2201 47.2217 57.9061 45.6396 60.7024 42.0337L61.6223 40.8563L66.0376 43.6527C68.4661 45.1612 72.2927 47.3321 74.5372 48.3992C80.2403 51.1219 80.2403 51.2323 77.076 56.5307L74.6475 60.6149L68.3189 60.8725C64.8234 61.0197 58.8627 61.0564 54.9993 60.9829C48.1923 60.8725 47.9716 60.8357 46.3158 59.879C42.526 57.6346 39.8768 54.0655 36.9332 47.1481C31.8188 35.19 25.2326 27.7943 17.6897 25.5866C15.2981 24.8875 12.4649 24.8139 11.8394 25.4394C11.5083 25.7706 11.3979 30.3699 11.3979 43.8366C11.3979 58.9224 11.3243 61.7923 10.8828 61.7923C10.1837 61.7923 10.1837 61.7187 8.41755 42.6592L6.87218 25.9178L5.32681 23.5261C4.48054 22.2015 3.4503 20.2882 3.08235 19.2948C2.19929 16.9399 2.19929 12.635 3.08235 10.0226C3.81824 7.85169 6.46744 3.54674 6.98256 3.73071C7.16653 3.8043 9.88932 6.96862 13.0536 10.832Z" fill="#222222"/>
</svg>
